<svg id="Layer_1" enable-background="new 0 0 512 512" height="512" viewBox="0 0 512 512" width="512" xmlns="http://www.w3.org/2000/svg"><g><path d="m360.3 141.8c-9.3 3.4-19.1 5.5-29 6 6 5.9 10.9 12.7 14.6 20.2 7.6 15.5 9.7 33.1 6 50-.7 3.2-3.9 5.3-7.1 4.6-1-.2-2-.7-2.7-1.4-2.1-1.8-4.3-4.3-6.8-6.9-4.7-5.1-10.5-11.4-15.1-13.4-1.7-.8-4.2-1.5-7-2.5-11.9-3.8-31-9.9-46.7-29.6-.3.7-.6 1.3-.9 2-5.3 11.1-14.1 29.6-36.7 34.6-3.3.7-8.6.9-14.7 1.2-6.3.2-18.1.7-20.7 2.2-2.6 2.1-6.3 1.7-8.4-.9-1-1.2-1.5-2.8-1.3-4.4 1.6-17.1 9.4-28.3 15.6-37.3 5.8-8.4 9.9-14.4 8.5-22.7-11.5 3-31.5 5.6-52.2-3.7-67.8 33.3-109.7 96.7-109.7 166.1 0 104.3 94.2 189.1 210 189.1s210-84.8 210-189.1c0-67.7-40.5-130.4-105.7-164.1zm-251.8 106.8c-13 36.7-13.1 76.7-.5 113.4 1.1 3.1-.6 6.6-3.7 7.6-3.1 1.1-6.6-.6-7.6-3.7-13.5-39.3-13.4-82.1.5-121.3 1.1-3.1 4.5-4.8 7.7-3.7 3 1.1 4.7 4.5 3.6 7.7zm36 184.3c-2.5 2.2-6.3 2-8.5-.5-7.8-8.7-14.8-18-21-27.9-1.8-2.8-1-6.5 1.8-8.3s6.5-1 8.3 1.8c0 0 .1.1.1.1 5.8 9.3 12.4 18.1 19.7 26.2 2.3 2.6 2.1 6.4-.4 8.6z"/><path d="m158.2 127.8c21.9 10.9 43.5 5.4 51.7 2.5 3-1 6.3.5 7.5 3.4 6.9 17.2-.8 28.4-8.3 39.2-4.6 6.6-9.3 13.5-11.8 22.6 4.4-.6 9.9-.8 16.4-1.1 5-.2 10.3-.4 12.5-.9 16.8-3.7 23.5-17.8 28.4-28 3.2-6.7 5.9-12.4 11.9-12.6h.2c2 0 3.9 1 5 2.7 14.1 21.4 32.8 27.4 45.1 31.4 2.8.8 5.6 1.8 8.2 2.9 5.9 2.6 11.5 8.2 16.6 13.6.3-10.4-1.9-20.8-6.5-30.1-5.7-11.3-14.5-20.7-25.4-27.1-2.9-1.7-3.8-5.3-2.2-8.2 1.2-2.1 3.6-3.3 6-2.9 17 2.4 34.3-.3 49.8-7.7 8.5-4.1 16.2-10.5 22.2-16.4-10.1 1.6-23 2-36.3-1.8-7.4-2.1-14.4-5.4-21.8-8.9-15.1-7.2-30.6-14.6-49.1-10.5l4.3 17.3c.8 3.2-1.2 6.5-4.4 7.3s-6.5-1.2-7.3-4.4l-21.9-88c-.9-3.5-4.4-5.6-7.9-4.7-3.4.9-5.6 4.3-4.8 7.8l17.2 74c.8 3.2-1.3 6.5-4.5 7.2-1.1.3-2.3.2-3.4-.2-28.9-10.3-46.1-3.4-62.8 3.3-9.7 3.9-18.8 7.6-29.4 7.6-3.7 0-7.9-1-12.4-2.4 5.6 5.2 11.5 10.3 17.2 13.1z"/></g></svg>